<?xml version="1.0" encoding="UTF-8"?>
<!DOCTYPE svg PUBLIC "-//W3C//DTD SVG 1.1//EN" "http://www.w3.org/Graphics/SVG/1.1/DTD/svg11.dtd">
<svg xmlns="http://www.w3.org/2000/svg" version="1.1" width="512px" height="512px" style="shape-rendering:geometricPrecision; text-rendering:geometricPrecision; image-rendering:optimizeQuality; fill-rule:evenodd; clip-rule:evenodd" xmlns:xlink="http://www.w3.org/1999/xlink">
<g><path style="opacity:0.954" fill="#313637" d="M 330.5,-0.5 C 337.167,-0.5 343.833,-0.5 350.5,-0.5C 367.707,7.77251 384.373,17.1058 400.5,27.5C 394.032,27.1506 387.699,27.8173 381.5,29.5C 374.473,26.7378 367.14,24.5712 359.5,23C 348.669,22.1655 338.335,19.4989 328.5,15C 326.126,12.961 324.126,10.6277 322.5,8C 319.312,6.68424 315.978,6.18424 312.5,6.5C 318.212,3.37464 324.212,1.04131 330.5,-0.5 Z"/></g>
<g><path style="opacity:1" fill="#252b2d" d="M 312.5,6.5 C 315.978,6.18424 319.312,6.68424 322.5,8C 324.126,10.6277 326.126,12.961 328.5,15C 338.335,19.4989 348.669,22.1655 359.5,23C 367.14,24.5712 374.473,26.7378 381.5,29.5C 372.97,31.2625 364.97,34.4291 357.5,39C 306.425,69.0661 255.092,98.7327 203.5,128C 171.42,148.086 147.92,175.586 133,210.5C 128.355,221.263 124.855,232.263 122.5,243.5C 122.719,242.325 122.386,241.325 121.5,240.5C 105.102,230.636 88.4354,221.302 71.5,212.5C 80.225,174.208 98.8916,141.708 127.5,115C 133.972,109.264 140.972,104.264 148.5,100C 203.059,68.5566 257.725,37.39 312.5,6.5 Z"/></g>
<g><path style="opacity:0.955" fill="#4d5557" d="M 400.5,27.5 C 419.163,30.3262 431.663,40.6595 438,58.5C 439.965,64.3605 441.298,70.3605 442,76.5C 442.667,144.833 442.667,213.167 442,281.5C 434.708,331.27 411.541,371.77 372.5,403C 312.656,438.425 252.323,473.092 191.5,507C 186.714,508.522 182.048,510.022 177.5,511.5C 170.5,511.5 163.5,511.5 156.5,511.5C 146.314,508.662 137.981,502.995 131.5,494.5C 123.708,482.418 119.875,469.085 120,454.5C 119.333,389.167 119.333,323.833 120,258.5C 120.789,253.471 121.623,248.471 122.5,243.5C 124.855,232.263 128.355,221.263 133,210.5C 147.92,175.586 171.42,148.086 203.5,128C 255.092,98.7327 306.425,69.0661 357.5,39C 364.97,34.4291 372.97,31.2625 381.5,29.5C 387.699,27.8173 394.032,27.1506 400.5,27.5 Z"/></g>
<g><path style="opacity:1" fill="#3a4041" d="M 385.5,34.5 C 414.274,32.4262 430.774,45.7595 435,74.5C 435.667,143.167 435.667,211.833 435,280.5C 427.397,332.38 402.23,373.214 359.5,403C 303.997,435.253 248.33,467.253 192.5,499C 181.307,504.01 169.641,505.677 157.5,504C 142.966,499.132 133.466,489.298 129,474.5C 128.17,469.857 127.503,465.19 127,460.5C 126.333,392.167 126.333,323.833 127,255.5C 134.923,209.132 157.089,171.299 193.5,142C 248.336,109.748 303.336,77.7476 358.5,46C 367.151,40.9983 376.151,37.165 385.5,34.5 Z"/></g>
<g><path style="opacity:1" fill="#16e1a5" d="M 248.5,155.5 C 248.5,150.5 248.5,145.5 248.5,140.5C 252.732,138.477 255.065,139.81 255.5,144.5C 254.923,149.329 252.589,152.996 248.5,155.5 Z"/></g>
<g><path style="opacity:1" fill="#0dbdad" d="M 248.5,140.5 C 248.5,145.5 248.5,150.5 248.5,155.5C 244.357,157.587 242.357,156.253 242.5,151.5C 242.689,146.784 244.689,143.118 248.5,140.5 Z"/></g>
<g><path style="opacity:1" fill="#ecc715" d="M 220.5,171.5 C 220.5,166.5 220.5,161.5 220.5,156.5C 224.732,154.477 227.065,155.81 227.5,160.5C 226.923,165.329 224.589,168.996 220.5,171.5 Z"/></g>
<g><path style="opacity:1" fill="#ebb017" d="M 220.5,156.5 C 220.5,161.5 220.5,166.5 220.5,171.5C 216.792,173.436 214.459,172.27 213.5,168C 214.459,163.233 216.793,159.4 220.5,156.5 Z"/></g>
<g><path style="opacity:1" fill="#f24c87" d="M 192.5,187.5 C 192.5,182.5 192.5,177.5 192.5,172.5C 196.659,170.468 198.993,171.801 199.5,176.5C 198.916,181.347 196.582,185.014 192.5,187.5 Z"/></g>
<g><path style="opacity:1" fill="#e32b64" d="M 192.5,172.5 C 192.5,177.5 192.5,182.5 192.5,187.5C 188.726,189.432 186.393,188.265 185.5,184C 185.939,178.945 188.272,175.112 192.5,172.5 Z"/></g>
<g><path style="opacity:1" fill="#090c0c" d="M 71.5,212.5 C 88.4354,221.302 105.102,230.636 121.5,240.5C 122.386,241.325 122.719,242.325 122.5,243.5C 121.623,248.471 120.789,253.471 120,258.5C 119.333,323.833 119.333,389.167 120,454.5C 119.875,469.085 123.708,482.418 131.5,494.5C 116.869,486.851 102.535,478.685 88.5,470C 78.3484,461.867 72.1818,451.367 70,438.5C 68.3562,367.86 68.0229,297.193 69,226.5C 69.3473,221.703 70.1807,217.037 71.5,212.5 Z"/></g>
<g><path style="opacity:1" fill="#fcfcfc" d="M 202.5,263.5 C 207.938,263.479 212.938,264.979 217.5,268C 236.336,279.253 255.336,290.253 274.5,301C 279.681,305.567 280.847,311.067 278,317.5C 256.878,354.247 235.378,390.747 213.5,427C 206.61,431.111 200.777,429.944 196,423.5C 194.517,420.298 194.183,416.964 195,413.5C 213.581,380.67 232.414,348.003 251.5,315.5C 234.5,305.667 217.5,295.833 200.5,286C 192.06,277.69 192.726,270.19 202.5,263.5 Z"/></g>
<g><path style="opacity:1" fill="#fcfcfc" d="M 365.5,311.5 C 378.045,309.877 383.212,315.21 381,327.5C 379.878,329.624 378.378,331.457 376.5,333C 349.336,348.414 322.336,364.081 295.5,380C 282.742,384.223 276.575,379.723 277,366.5C 278.532,363.476 280.699,360.976 283.5,359C 311.06,343.392 338.393,327.559 365.5,311.5 Z"/></g>
</svg>
