<?xml version="1.0" encoding="UTF-8"?>
<!DOCTYPE svg PUBLIC "-//W3C//DTD SVG 1.1//EN" "http://www.w3.org/Graphics/SVG/1.1/DTD/svg11.dtd">
<svg xmlns="http://www.w3.org/2000/svg" version="1.1" width="2048px" height="2048px" style="shape-rendering:geometricPrecision; text-rendering:geometricPrecision; image-rendering:optimizeQuality; fill-rule:evenodd; clip-rule:evenodd" xmlns:xlink="http://www.w3.org/1999/xlink">
<g><path style="opacity:0.998" fill="#2392d0" d="M 241.5,-0.5 C 253.167,-0.5 264.833,-0.5 276.5,-0.5C 274.518,32.2773 273.852,65.2773 274.5,98.5C 273.167,98.5 271.833,98.5 270.5,98.5C 261.014,97.5062 251.348,97.1729 241.5,97.5C 241.5,64.8333 241.5,32.1667 241.5,-0.5 Z"/></g>
<g><path style="opacity:0.997" fill="#2099d5" d="M 233.5,-0.5 C 236.167,-0.5 238.833,-0.5 241.5,-0.5C 241.5,32.1667 241.5,64.8333 241.5,97.5C 251.348,97.1729 261.014,97.5062 270.5,98.5C 249.08,97.9293 227.747,98.9293 206.5,101.5C 205.5,101.5 204.5,101.5 203.5,101.5C 203.5,69.1667 203.5,36.8333 203.5,4.5C 213.538,2.44931 223.538,0.782644 233.5,-0.5 Z"/></g>
<g><path style="opacity:0.997" fill="#298ccc" d="M 276.5,-0.5 C 276.833,-0.5 277.167,-0.5 277.5,-0.5C 287.464,0.782825 297.464,2.44949 307.5,4.5C 307.5,37.1667 307.5,69.8333 307.5,102.5C 296.588,100.455 285.588,99.1221 274.5,98.5C 273.852,65.2773 274.518,32.2773 276.5,-0.5 Z"/></g>
<g><path style="opacity:0.996" fill="#1b9fd9" d="M 203.5,4.5 C 203.5,36.8333 203.5,69.1667 203.5,101.5C 204.5,101.5 205.5,101.5 206.5,101.5C 194.981,104.294 183.314,106.961 171.5,109.5C 171.5,77.5 171.5,45.5 171.5,13.5C 181.729,9.31767 192.395,6.31767 203.5,4.5 Z"/></g>
<g><path style="opacity:0.998" fill="#2d86c8" d="M 307.5,4.5 C 318.605,6.31767 329.271,9.31767 339.5,13.5C 339.5,45.5 339.5,77.5 339.5,109.5C 328.913,106.748 318.246,104.414 307.5,102.5C 307.5,69.8333 307.5,37.1667 307.5,4.5 Z"/></g>
<g><path style="opacity:0.997" fill="#16a5de" d="M 171.5,13.5 C 171.5,45.5 171.5,77.5 171.5,109.5C 161.177,112.943 150.843,116.61 140.5,120.5C 138.508,89.8513 137.841,58.8513 138.5,27.5C 148.865,21.4884 159.865,16.8217 171.5,13.5 Z"/></g>
<g><path style="opacity:0.998" fill="#327fc3" d="M 339.5,13.5 C 353.144,17.8207 366.144,23.4874 378.5,30.5C 378.175,61.9068 378.508,93.2401 379.5,124.5C 366.309,118.895 352.976,113.895 339.5,109.5C 339.5,77.5 339.5,45.5 339.5,13.5 Z"/></g>
<g><path style="opacity:0.997" fill="#397abf" d="M 378.5,30.5 C 388.549,35.5163 397.883,41.5163 406.5,48.5C 406.5,186.5 406.5,324.5 406.5,462.5C 397.383,469.566 387.716,475.899 377.5,481.5C 378.491,428.875 378.825,376.209 378.5,323.5C 386.822,311.533 394.655,299.2 402,286.5C 402.667,237.167 402.667,187.833 402,138.5C 400.127,136.291 397.96,134.458 395.5,133C 389.947,130.392 384.613,127.559 379.5,124.5C 378.508,93.2401 378.175,61.9068 378.5,30.5 Z"/></g>
<g><path style="opacity:0.998" fill="#16ace3" d="M 138.5,27.5 C 137.841,58.8513 138.508,89.8513 140.5,120.5C 132.925,124.287 125.259,128.121 117.5,132C 114.217,133.561 111.383,135.727 109,138.5C 108.333,187.833 108.333,237.167 109,286.5C 118.211,302.53 128.378,317.863 139.5,332.5C 138.501,382.664 138.168,432.997 138.5,483.5C 127.201,478.186 116.534,471.852 106.5,464.5C 105.837,325.706 105.17,187.039 104.5,48.5C 114.82,39.9993 126.154,32.9993 138.5,27.5 Z"/></g>
<g><path style="opacity:0.999" fill="#0db0e6" d="M 104.5,48.5 C 105.17,187.039 105.837,325.706 106.5,464.5C 100.241,460.539 94.5747,455.873 89.5,450.5C 89.5,320.5 89.5,190.5 89.5,60.5C 93.8983,55.7705 98.8983,51.7705 104.5,48.5 Z"/></g>
<g><path style="opacity:0.999" fill="#3976bc" d="M 406.5,48.5 C 410.896,51.0251 414.896,54.0251 418.5,57.5C 417.167,189.5 417.167,321.5 418.5,453.5C 414.896,456.975 410.896,459.975 406.5,462.5C 406.5,324.5 406.5,186.5 406.5,48.5 Z"/></g>
<g><path style="opacity:0.997" fill="#3b72b9" d="M 418.5,57.5 C 427.467,64.799 435.8,72.799 443.5,81.5C 442.835,197.171 443.502,312.505 445.5,427.5C 437.134,436.867 428.134,445.534 418.5,453.5C 417.167,321.5 417.167,189.5 418.5,57.5 Z"/></g>
<g><path style="opacity:0.998" fill="#0ab3e8" d="M 89.5,60.5 C 89.5,190.5 89.5,320.5 89.5,450.5C 81.5344,444.202 74.2011,437.202 67.5,429.5C 67.5,313.5 67.5,197.5 67.5,81.5C 74.2011,73.798 81.5344,66.798 89.5,60.5 Z"/></g>
<g><path style="opacity:0.998" fill="#07b8eb" d="M 67.5,81.5 C 67.5,197.5 67.5,313.5 67.5,429.5C 54.4774,415.794 43.144,400.794 33.5,384.5C 34.8333,298.5 34.8333,212.5 33.5,126.5C 43.144,110.206 54.4774,95.2063 67.5,81.5 Z"/></g>
<g><path style="opacity:0.998" fill="#3f6eb6" d="M 443.5,81.5 C 450.936,88.2679 457.269,95.9345 462.5,104.5C 462.5,205.167 462.5,305.833 462.5,406.5C 457.542,414.089 451.875,421.089 445.5,427.5C 443.502,312.505 442.835,197.171 443.5,81.5 Z"/></g>
<g><path style="opacity:1" fill="#fefefe" d="M 270.5,98.5 C 271.833,98.5 273.167,98.5 274.5,98.5C 285.588,99.1221 296.588,100.455 307.5,102.5C 318.246,104.414 328.913,106.748 339.5,109.5C 352.976,113.895 366.309,118.895 379.5,124.5C 384.613,127.559 389.947,130.392 395.5,133C 397.96,134.458 400.127,136.291 402,138.5C 402.667,187.833 402.667,237.167 402,286.5C 394.655,299.2 386.822,311.533 378.5,323.5C 371.572,332.435 364.238,341.102 356.5,349.5C 341.267,363.076 324.934,375.076 307.5,385.5C 296.301,391.596 285.301,397.929 274.5,404.5C 269.553,406.973 264.553,409.473 259.5,412C 253.232,412.871 247.565,411.371 242.5,407.5C 230.163,399.996 217.496,392.996 204.5,386.5C 193.582,379.59 182.915,372.257 172.5,364.5C 160.865,354.533 149.865,343.866 139.5,332.5C 128.378,317.863 118.211,302.53 109,286.5C 108.333,237.167 108.333,187.833 109,138.5C 111.383,135.727 114.217,133.561 117.5,132C 125.259,128.121 132.925,124.287 140.5,120.5C 150.843,116.61 161.177,112.943 171.5,109.5C 183.314,106.961 194.981,104.294 206.5,101.5C 227.747,98.9293 249.08,97.9293 270.5,98.5 Z"/></g>
<g><path style="opacity:0.996" fill="#416bb4" d="M 462.5,104.5 C 467.898,110.947 472.564,117.947 476.5,125.5C 476.5,212.167 476.5,298.833 476.5,385.5C 472.564,393.053 467.898,400.053 462.5,406.5C 462.5,305.833 462.5,205.167 462.5,104.5 Z"/></g>
<g><path style="opacity:0.99" fill="#03bef0" d="M 33.5,126.5 C 34.8333,212.5 34.8333,298.5 33.5,384.5C 14.7162,351.484 3.38283,316.151 -0.5,278.5C -0.5,263.167 -0.5,247.833 -0.5,232.5C 3.38246,194.85 14.7158,159.517 33.5,126.5 Z"/></g>
<g><path style="opacity:0.994" fill="#4368b1" d="M 476.5,125.5 C 495.982,158.612 507.648,194.278 511.5,232.5C 511.5,247.833 511.5,263.167 511.5,278.5C 507.648,316.722 495.982,352.388 476.5,385.5C 476.5,298.833 476.5,212.167 476.5,125.5 Z"/></g>
<g><path style="opacity:0.998" fill="#16a5de" d="M 139.5,332.5 C 149.865,343.866 160.865,354.533 172.5,364.5C 171.501,408.664 171.168,452.997 171.5,497.5C 159.865,494.178 148.865,489.512 138.5,483.5C 138.168,432.997 138.501,382.664 139.5,332.5 Z"/></g>
<g><path style="opacity:0.999" fill="#337ec2" d="M 378.5,323.5 C 378.825,376.209 378.491,428.875 377.5,481.5C 371.075,485.046 364.408,488.046 357.5,490.5C 356.501,443.67 356.168,396.67 356.5,349.5C 364.238,341.102 371.572,332.435 378.5,323.5 Z"/></g>
<g><path style="opacity:0.998" fill="#2e84c6" d="M 356.5,349.5 C 356.168,396.67 356.501,443.67 357.5,490.5C 341.346,498.216 324.346,503.55 306.5,506.5C 307.494,466.239 307.827,425.906 307.5,385.5C 324.934,375.076 341.267,363.076 356.5,349.5 Z"/></g>
<g><path style="opacity:0.997" fill="#1a9fd9" d="M 172.5,364.5 C 182.915,372.257 193.582,379.59 204.5,386.5C 203.501,426.33 203.168,466.33 203.5,506.5C 192.397,504.683 181.73,501.683 171.5,497.5C 171.168,452.997 171.501,408.664 172.5,364.5 Z"/></g>
<g><path style="opacity:0.997" fill="#288ccc" d="M 307.5,385.5 C 307.827,425.906 307.494,466.239 306.5,506.5C 297.247,508.656 287.914,510.323 278.5,511.5C 277.167,511.5 275.833,511.5 274.5,511.5C 274.5,475.833 274.5,440.167 274.5,404.5C 285.301,397.929 296.301,391.596 307.5,385.5 Z"/></g>
<g><path style="opacity:0.998" fill="#2098d4" d="M 204.5,386.5 C 217.496,392.996 230.163,399.996 242.5,407.5C 241.502,441.996 241.168,476.663 241.5,511.5C 238.5,511.5 235.5,511.5 232.5,511.5C 222.862,510.249 213.195,508.582 203.5,506.5C 203.168,466.33 203.501,426.33 204.5,386.5 Z"/></g>
<g><path style="opacity:0.999" fill="#2492d0" d="M 274.5,404.5 C 274.5,440.167 274.5,475.833 274.5,511.5C 263.5,511.5 252.5,511.5 241.5,511.5C 241.168,476.663 241.502,441.996 242.5,407.5C 247.565,411.371 253.232,412.871 259.5,412C 264.553,409.473 269.553,406.973 274.5,404.5 Z"/></g>
</svg>
