<?xml version="1.0" encoding="UTF-8"?>
<!DOCTYPE svg PUBLIC "-//W3C//DTD SVG 1.1//EN" "http://www.w3.org/Graphics/SVG/1.1/DTD/svg11.dtd">
<svg xmlns="http://www.w3.org/2000/svg" version="1.1" width="512px" height="512px" style="shape-rendering:geometricPrecision; text-rendering:geometricPrecision; image-rendering:optimizeQuality; fill-rule:evenodd; clip-rule:evenodd" xmlns:xlink="http://www.w3.org/1999/xlink">
<g><path style="opacity:0.991" fill="#fee600" d="M 255.5,34.5 C 255.5,66.1667 255.5,97.8333 255.5,129.5C 211.187,130.369 173.187,146.035 141.5,176.5C 119.412,154.058 97.0784,131.725 74.5,109.5C 124.39,60.0769 184.723,35.0769 255.5,34.5 Z"/></g>
<g><path style="opacity:1" fill="#ffaa31" d="M 255.5,34.5 C 326.802,35.1348 387.469,60.4681 437.5,110.5C 414.918,131.58 392.751,153.247 371,175.5C 370.536,176.094 370.369,176.761 370.5,177.5C 338.668,146.431 300.335,130.431 255.5,129.5C 255.5,97.8333 255.5,66.1667 255.5,34.5 Z"/></g>
<g><path style="opacity:1" fill="#05d200" d="M 74.5,109.5 C 97.0784,131.725 119.412,154.058 141.5,176.5C 110.994,208.204 95.327,246.204 94.5,290.5C 62.8333,290.5 31.1667,290.5 -0.5,290.5C -0.5,282.833 -0.5,275.167 -0.5,267.5C 5.7343,205.735 30.7343,153.068 74.5,109.5 Z"/></g>
<g><path style="opacity:0.992" fill="#ff1e59" d="M 437.5,110.5 C 480.565,153.967 505.232,206.3 511.5,267.5C 511.5,275.167 511.5,282.833 511.5,290.5C 479.833,290.5 448.167,290.5 416.5,290.5C 415.761,246.715 400.428,209.048 370.5,177.5C 370.369,176.761 370.536,176.094 371,175.5C 392.751,153.247 414.918,131.58 437.5,110.5 Z"/></g>
<g><path style="opacity:1" fill="#001428" d="M 382.5,389.5 C 386.844,396.691 391.01,404.024 395,411.5C 396.623,417.568 395.123,422.568 390.5,426.5C 334.868,370.368 279.035,314.368 223,258.5C 222.536,257.906 222.369,257.239 222.5,256.5C 237.766,242.949 255.099,239.782 274.5,247C 279.098,249.27 283.431,251.937 287.5,255C 299.751,268.349 310.918,282.516 321,297.5C 341.771,328.06 362.271,358.727 382.5,389.5 Z"/></g>
<g><path style="opacity:0.988" fill="#003b4f" d="M 222.5,256.5 C 222.369,257.239 222.536,257.906 223,258.5C 279.035,314.368 334.868,370.368 390.5,426.5C 387.668,429.282 384.168,430.615 380,430.5C 376.472,430.478 373.306,429.478 370.5,427.5C 321.679,397.51 274.345,365.344 228.5,331C 206.374,311.823 202.207,289.323 216,263.5C 217.719,260.712 219.885,258.379 222.5,256.5 Z"/></g>
<g><path style="opacity:0.988" fill="#9afe00" d="M -0.5,290.5 C 31.1667,290.5 62.8333,290.5 94.5,290.5C 95.1113,336.371 111.611,375.371 144,407.5C 146.995,413.586 146.662,419.586 143,425.5C 126.833,441.667 110.667,457.833 94.5,474C 84.2372,478.802 75.7372,476.635 69,467.5C 28.7336,423.961 5.56698,372.628 -0.5,313.5C -0.5,305.833 -0.5,298.167 -0.5,290.5 Z"/></g>
<g><path style="opacity:1" fill="#c40050" d="M 416.5,290.5 C 448.167,290.5 479.833,290.5 511.5,290.5C 511.5,298.167 511.5,305.833 511.5,313.5C 504.948,375.432 479.948,428.599 436.5,473C 430.069,477.231 423.402,477.564 416.5,474C 400.965,458.632 385.632,443.132 370.5,427.5C 373.306,429.478 376.472,430.478 380,430.5C 384.168,430.615 387.668,429.282 390.5,426.5C 395.123,422.568 396.623,417.568 395,411.5C 391.01,404.024 386.844,396.691 382.5,389.5C 404.939,360.522 416.272,327.522 416.5,290.5 Z"/></g>
</svg>
